<svg id="Calque_1" data-name="Calque 1" xmlns="http://www.w3.org/2000/svg" width="280" height="150" viewBox="0 0 280 150">
  <title>polynom-280x150</title>
  <rect width="280" height="150" style="fill: #263238"/>
  <g>
    <path d="M73.587,54.75a20.242,20.242,0,0,0-7.667-2.026H57.426V51.431A0.431,0.431,0,0,0,57,51H50.962a0.431,0.431,0,0,0-.431.431v6.034a0.431,0.431,0,0,0,.431.431H57a0.431,0.431,0,0,0,.431-0.431V56.172h8.489c0.493,0,12.072.2,12.072,12.067S66.408,80.306,65.92,80.306H65.571a0.862,0.862,0,0,0-.619.262L54.719,91.134a0.431,0.431,0,0,1-.741-0.3V70.394a0.431,0.431,0,0,1,.431-0.431H62.6v1.293a0.431,0.431,0,0,0,.431.431h6.034a0.431,0.431,0,0,0,.431-0.431V65.222a0.431,0.431,0,0,0-.431-0.431H63.029a0.431,0.431,0,0,0-.431.431v1.293H51.393a0.862,0.862,0,0,0-.862.862V98.136A0.862,0.862,0,0,0,52,98.745l14.5-14.561a0.851,0.851,0,0,1,.526-0.249,19,19,0,0,0,6.584-1.847c3.58-1.79,7.833-5.664,7.833-13.669S77.167,56.54,73.587,54.75Zm-18.746.56H53.117V53.586H54.84V55.31ZM65.184,67.377h1.724V69.1H65.184V67.377Z" style="fill: #fff"/>
    <g>
      <path d="M107.5,61.788a6.776,6.776,0,0,1,2.52,5.742q0,4.068-2.628,6.048a11.323,11.323,0,0,1-6.984,1.979H97.277v9.109h-3.42v-24.8h6.516Q104.981,59.862,107.5,61.788Zm-2.682,9.918q1.566-1.151,1.566-4.14a4.526,4.526,0,0,0-1.566-3.853,7.3,7.3,0,0,0-4.482-1.187h-3.06V72.858h2.988A7.61,7.61,0,0,0,104.819,71.706Z" style="fill: #fff"/>
      <path d="M127.211,67.926a10.977,10.977,0,0,1,2.214,7.236,12.62,12.62,0,0,1-1.008,5.2,7.9,7.9,0,0,1-2.916,3.492,8.137,8.137,0,0,1-4.536,1.241,7.679,7.679,0,0,1-6.228-2.664A10.91,10.91,0,0,1,112.5,75.2a12.608,12.608,0,0,1,1.008-5.2,7.9,7.9,0,0,1,2.916-3.492A8.193,8.193,0,0,1,121,65.261,7.629,7.629,0,0,1,127.211,67.926ZM116.069,75.2q0,7.237,4.9,7.236t4.9-7.272q0-7.236-4.86-7.236Q116.069,67.926,116.069,75.2Z" style="fill: #fff"/>
      <path d="M138.3,82a1.076,1.076,0,0,0,.918.36,3.285,3.285,0,0,0,1.224-.216l0.864,2.3a6.346,6.346,0,0,1-2.808.647,3.618,3.618,0,0,1-2.808-1.062,4.464,4.464,0,0,1-.972-3.114V58.062l3.312-.4V80.85A1.941,1.941,0,0,0,138.3,82Z" style="fill: #fff"/>
      <path d="M149.926,90.012a9.407,9.407,0,0,1-5.705,2.322l-0.36-2.592a9.76,9.76,0,0,0,2.988-.937,5.17,5.17,0,0,0,1.782-1.565,11.035,11.035,0,0,0,1.242-2.574h-1.117l-6.371-18.972h3.527l5.076,16.56,4.967-16.56h3.42L153.04,84.775A12.783,12.783,0,0,1,149.926,90.012Z" style="fill: #fff"/>
      <path d="M176.135,66.809a5.953,5.953,0,0,1,1.457,4.248V84.666H174.28V71.526a4.211,4.211,0,0,0-.756-2.845,2.872,2.872,0,0,0-2.232-.827,4.322,4.322,0,0,0-2.664.863,8.962,8.962,0,0,0-2.158,2.484V84.666h-3.312V65.694H166l0.287,2.808a7.5,7.5,0,0,1,2.5-2.376,6.461,6.461,0,0,1,3.295-.864A5.3,5.3,0,0,1,176.135,66.809Z" style="fill: #fff"/>
      <path d="M197.59,67.926a10.974,10.974,0,0,1,2.215,7.236,12.62,12.62,0,0,1-1.008,5.2,7.908,7.908,0,0,1-2.916,3.492,8.143,8.143,0,0,1-4.537,1.241,7.674,7.674,0,0,1-6.227-2.664,10.913,10.913,0,0,1-2.232-7.236,12.616,12.616,0,0,1,1.008-5.2,7.908,7.908,0,0,1,2.916-3.492,8.191,8.191,0,0,1,4.572-1.242A7.625,7.625,0,0,1,197.59,67.926ZM186.45,75.2q0,7.237,4.895,7.236t4.9-7.272q0-7.236-4.859-7.236Q186.448,67.926,186.45,75.2Z" style="fill: #fff"/>
      <path d="M228.065,66.828a6.1,6.1,0,0,1,1.4,4.229V84.666h-3.312V71.526q0-3.672-2.664-3.672a3.592,3.592,0,0,0-2.377.81,11.371,11.371,0,0,0-2.088,2.538V84.666h-3.311V71.526q0-3.672-2.664-3.672a3.587,3.587,0,0,0-2.412.827,11.377,11.377,0,0,0-2.053,2.521V84.666h-3.312V65.694h2.844l0.289,2.771a6.356,6.356,0,0,1,5.473-3.2,4.992,4.992,0,0,1,3.006.9,4.927,4.927,0,0,1,1.781,2.52,8.932,8.932,0,0,1,2.467-2.538,5.7,5.7,0,0,1,3.186-.882A4.784,4.784,0,0,1,228.065,66.828Z" style="fill: #fff"/>
    </g>
  </g>
</svg>
