<svg id="Calque_1" data-name="Calque 1" xmlns="http://www.w3.org/2000/svg" width="120" height="120" viewBox="0 0 120 120">
  <title>polynom-120x120</title>
  <rect width="120" height="120" style="fill: #263238"/>
  <path d="M70.128,33a26.99,26.99,0,0,0-10.222-2.7H48.581V28.575A0.575,0.575,0,0,0,48.006,28H39.961a0.575,0.575,0,0,0-.575.575v8.045a0.575,0.575,0,0,0,.575.575h8.045a0.575,0.575,0,0,0,.575-0.575V34.9H59.9c0.657,0,16.1.269,16.1,16.09s-15.439,16.09-16.09,16.09H59.44a1.149,1.149,0,0,0-.826.35L44.971,81.512a0.575,0.575,0,0,1-.987-0.4V53.858a0.575,0.575,0,0,1,.575-0.575H55.476v1.724a0.575,0.575,0,0,0,.575.575H64.1a0.575,0.575,0,0,0,.575-0.575V46.963a0.575,0.575,0,0,0-.575-0.575H56.051a0.575,0.575,0,0,0-.575.575v1.724H40.536a1.149,1.149,0,0,0-1.149,1.149V90.848a1.149,1.149,0,0,0,1.963.811L60.689,72.245a1.135,1.135,0,0,1,.7-0.332A25.329,25.329,0,0,0,70.17,69.45c4.774-2.387,10.444-7.553,10.444-18.225S74.9,35.386,70.128,33Zm-24.995.747h-2.3v-2.3h2.3v2.3Zm13.791,16.09h2.3v2.3h-2.3v-2.3Z" style="fill: #fff"/>
</svg>
